<svg width="27" height="25" fill="none" xmlns="http://www.w3.org/2000/svg"><g filter="url(#a)"><path d="M13.4 17a1 1 0 0 1-.8-.4l-7-7.9A5.4 5.4 0 0 1 10 0c1.3 0 2.5.5 3.5 1.3C14.5.5 16 0 17.1 0c3 0 5.5 2.4 5.5 5.4 0 1.3-.5 2.5-1.3 3.4l-7 7.9c-.3.2-.5.3-.9.3Zm-6-9.5 6.1 6.9 6.3-7c.5-.5.7-1.2.7-2 0-1.8-1.5-3.3-3.3-3.3-1 0-2 .5-2.8 1.3-.3.3-.6.4-.9.4-.3 0-.6-.2-.8-.4A3.7 3.7 0 0 0 10 2.1a3.3 3.3 0 0 0-3.3 3.3c0 .9.3 1.6.7 2.1Z" fill="#000"/></g><defs><filter id="a" x=".5" y="0" width="26.1" height="25" filterUnits="userSpaceOnUse" color-interpolation-filters="sRGB"><feFlood flood-opacity="0" result="BackgroundImageFix"/><feColorMatrix in="SourceAlpha" values="0 0 0 0 0 0 0 0 0 0 0 0 0 0 0 0 0 0 127 0" result="hardAlpha"/><feOffset dy="4"/><feGaussianBlur stdDeviation="2"/><feComposite in2="hardAlpha" operator="out"/><feColorMatrix values="0 0 0 0 0 0 0 0 0 0 0 0 0 0 0 0 0 0 0.25 0"/><feBlend in2="BackgroundImageFix" result="effect1_dropShadow_24196_812"/><feBlend in="SourceGraphic" in2="effect1_dropShadow_24196_812" result="shape"/></filter></defs></svg>